<mxfile host="app.diagrams.net" agent="Mozilla/5.0 (Windows NT 10.0; Win64; x64) AppleWebKit/537.36 (KHTML, like Gecko) Chrome/129.0.0.0 Safari/537.36 Edg/129.0.0.0" version="24.7.17" pages="2">
  <diagram name="Page-1" id="wYuPvYWm2NcK-HueDt-S">
    <mxGraphModel dx="1426" dy="747" grid="1" gridSize="10" guides="1" tooltips="1" connect="1" arrows="1" fold="1" page="1" pageScale="1" pageWidth="850" pageHeight="1100" background="#ffffff" math="0" shadow="0">
      <root>
        <mxCell id="0" />
        <mxCell id="1" parent="0" />
        <mxCell id="wUDPbdnFe70WBPyulDKf-5" style="edgeStyle=orthogonalEdgeStyle;rounded=0;orthogonalLoop=1;jettySize=auto;html=1;entryX=0;entryY=0.5;entryDx=0;entryDy=0;labelBackgroundColor=none;strokeColor=#0B4D6A;fontColor=default;" parent="1" source="wUDPbdnFe70WBPyulDKf-1" target="wUDPbdnFe70WBPyulDKf-3" edge="1">
          <mxGeometry relative="1" as="geometry" />
        </mxCell>
        <mxCell id="wUDPbdnFe70WBPyulDKf-1" value="Epicore&amp;nbsp;" style="rounded=0;whiteSpace=wrap;html=1;labelBackgroundColor=none;fillColor=#09555B;strokeColor=#BAC8D3;fontColor=#EEEEEE;" parent="1" vertex="1">
          <mxGeometry x="90" y="170" width="120" height="60" as="geometry" />
        </mxCell>
        <mxCell id="wUDPbdnFe70WBPyulDKf-11" style="edgeStyle=orthogonalEdgeStyle;rounded=0;orthogonalLoop=1;jettySize=auto;html=1;entryX=1;entryY=0.75;entryDx=0;entryDy=0;labelBackgroundColor=none;strokeColor=#0B4D6A;fontColor=default;" parent="1" source="wUDPbdnFe70WBPyulDKf-2" target="wUDPbdnFe70WBPyulDKf-10" edge="1">
          <mxGeometry relative="1" as="geometry">
            <Array as="points">
              <mxPoint x="615" y="200" />
              <mxPoint x="615" y="335" />
            </Array>
          </mxGeometry>
        </mxCell>
        <mxCell id="wUDPbdnFe70WBPyulDKf-2" value="Salesforce" style="ellipse;whiteSpace=wrap;html=1;labelBackgroundColor=none;fillColor=#09555B;strokeColor=#BAC8D3;fontColor=#EEEEEE;" parent="1" vertex="1">
          <mxGeometry x="650" y="150" width="120" height="80" as="geometry" />
        </mxCell>
        <mxCell id="wUDPbdnFe70WBPyulDKf-13" style="edgeStyle=orthogonalEdgeStyle;rounded=0;orthogonalLoop=1;jettySize=auto;html=1;labelBackgroundColor=none;strokeColor=#0B4D6A;fontColor=default;" parent="1" source="wUDPbdnFe70WBPyulDKf-3" target="wUDPbdnFe70WBPyulDKf-1" edge="1">
          <mxGeometry relative="1" as="geometry" />
        </mxCell>
        <mxCell id="wUDPbdnFe70WBPyulDKf-3" value="SFTP" style="rounded=1;whiteSpace=wrap;html=1;labelBackgroundColor=none;fillColor=#09555B;strokeColor=#BAC8D3;fontColor=#EEEEEE;" parent="1" vertex="1">
          <mxGeometry x="270" y="170" width="120" height="60" as="geometry" />
        </mxCell>
        <mxCell id="wUDPbdnFe70WBPyulDKf-6" style="edgeStyle=orthogonalEdgeStyle;rounded=0;orthogonalLoop=1;jettySize=auto;html=1;entryX=0;entryY=0.638;entryDx=0;entryDy=0;entryPerimeter=0;labelBackgroundColor=none;strokeColor=#0B4D6A;fontColor=default;" parent="1" source="wUDPbdnFe70WBPyulDKf-9" target="wUDPbdnFe70WBPyulDKf-2" edge="1">
          <mxGeometry relative="1" as="geometry" />
        </mxCell>
        <mxCell id="wUDPbdnFe70WBPyulDKf-8" value="" style="edgeStyle=orthogonalEdgeStyle;rounded=0;orthogonalLoop=1;jettySize=auto;html=1;entryX=0;entryY=0.638;entryDx=0;entryDy=0;entryPerimeter=0;labelBackgroundColor=none;strokeColor=#0B4D6A;fontColor=default;" parent="1" source="wUDPbdnFe70WBPyulDKf-3" target="wUDPbdnFe70WBPyulDKf-9" edge="1">
          <mxGeometry relative="1" as="geometry">
            <mxPoint x="390" y="100" as="sourcePoint" />
            <mxPoint x="650" y="201" as="targetPoint" />
          </mxGeometry>
        </mxCell>
        <mxCell id="wUDPbdnFe70WBPyulDKf-9" value="Anypoint&amp;nbsp;" style="rounded=0;whiteSpace=wrap;html=1;labelBackgroundColor=none;fillColor=#09555B;strokeColor=#BAC8D3;fontColor=#EEEEEE;" parent="1" vertex="1">
          <mxGeometry x="450" y="70" width="120" height="60" as="geometry" />
        </mxCell>
        <mxCell id="wUDPbdnFe70WBPyulDKf-12" style="edgeStyle=orthogonalEdgeStyle;rounded=0;orthogonalLoop=1;jettySize=auto;html=1;entryX=1;entryY=0.75;entryDx=0;entryDy=0;labelBackgroundColor=none;strokeColor=#0B4D6A;fontColor=default;" parent="1" source="wUDPbdnFe70WBPyulDKf-10" target="wUDPbdnFe70WBPyulDKf-3" edge="1">
          <mxGeometry relative="1" as="geometry" />
        </mxCell>
        <mxCell id="wUDPbdnFe70WBPyulDKf-10" value="Anypoint&amp;nbsp;" style="rounded=0;whiteSpace=wrap;html=1;labelBackgroundColor=none;fillColor=#09555B;strokeColor=#BAC8D3;fontColor=#EEEEEE;" parent="1" vertex="1">
          <mxGeometry x="460" y="290" width="120" height="60" as="geometry" />
        </mxCell>
        <mxCell id="wUDPbdnFe70WBPyulDKf-14" value="Option 1" style="text;html=1;align=center;verticalAlign=middle;resizable=0;points=[];autosize=1;strokeColor=none;fillColor=none;labelBackgroundColor=none;fontColor=#EEEEEE;" parent="1" vertex="1">
          <mxGeometry x="115" y="48" width="70" height="30" as="geometry" />
        </mxCell>
        <mxCell id="wUDPbdnFe70WBPyulDKf-16" style="edgeStyle=orthogonalEdgeStyle;rounded=0;orthogonalLoop=1;jettySize=auto;html=1;entryX=0;entryY=0.5;entryDx=0;entryDy=0;labelBackgroundColor=none;strokeColor=#0B4D6A;fontColor=default;" parent="1" source="wUDPbdnFe70WBPyulDKf-17" target="wUDPbdnFe70WBPyulDKf-21" edge="1">
          <mxGeometry relative="1" as="geometry" />
        </mxCell>
        <mxCell id="wUDPbdnFe70WBPyulDKf-17" value="Epicore&amp;nbsp;" style="rounded=0;whiteSpace=wrap;html=1;labelBackgroundColor=none;fillColor=#09555B;strokeColor=#BAC8D3;fontColor=#EEEEEE;" parent="1" vertex="1">
          <mxGeometry x="100" y="632" width="120" height="60" as="geometry" />
        </mxCell>
        <mxCell id="wUDPbdnFe70WBPyulDKf-18" style="edgeStyle=orthogonalEdgeStyle;rounded=0;orthogonalLoop=1;jettySize=auto;html=1;entryX=1;entryY=0.75;entryDx=0;entryDy=0;labelBackgroundColor=none;strokeColor=#0B4D6A;fontColor=default;" parent="1" source="0J_4nR7kKO_h-hr02DZh-2" target="wUDPbdnFe70WBPyulDKf-26" edge="1">
          <mxGeometry relative="1" as="geometry">
            <Array as="points">
              <mxPoint x="835" y="670" />
              <mxPoint x="835" y="805" />
            </Array>
          </mxGeometry>
        </mxCell>
        <mxCell id="wUDPbdnFe70WBPyulDKf-19" value="Salesforce" style="ellipse;whiteSpace=wrap;html=1;labelBackgroundColor=none;fillColor=#09555B;strokeColor=#BAC8D3;fontColor=#EEEEEE;" parent="1" vertex="1">
          <mxGeometry x="870" y="620" width="120" height="80" as="geometry" />
        </mxCell>
        <mxCell id="wUDPbdnFe70WBPyulDKf-29" style="edgeStyle=orthogonalEdgeStyle;rounded=0;orthogonalLoop=1;jettySize=auto;html=1;exitX=1;exitY=0.5;exitDx=0;exitDy=0;entryX=0;entryY=0.5;entryDx=0;entryDy=0;labelBackgroundColor=none;strokeColor=#0B4D6A;fontColor=default;" parent="1" source="wUDPbdnFe70WBPyulDKf-21" target="wUDPbdnFe70WBPyulDKf-28" edge="1">
          <mxGeometry relative="1" as="geometry" />
        </mxCell>
        <mxCell id="wUDPbdnFe70WBPyulDKf-21" value="Compsass" style="rounded=1;whiteSpace=wrap;html=1;labelBackgroundColor=none;fillColor=#09555B;strokeColor=#BAC8D3;fontColor=#EEEEEE;" parent="1" vertex="1">
          <mxGeometry x="250" y="632" width="120" height="60" as="geometry" />
        </mxCell>
        <mxCell id="wUDPbdnFe70WBPyulDKf-22" style="edgeStyle=orthogonalEdgeStyle;rounded=0;orthogonalLoop=1;jettySize=auto;html=1;entryX=0;entryY=0.638;entryDx=0;entryDy=0;entryPerimeter=0;labelBackgroundColor=none;strokeColor=#0B4D6A;fontColor=default;" parent="1" source="wUDPbdnFe70WBPyulDKf-24" target="wUDPbdnFe70WBPyulDKf-19" edge="1">
          <mxGeometry relative="1" as="geometry" />
        </mxCell>
        <mxCell id="wUDPbdnFe70WBPyulDKf-24" value="Anypoint&amp;nbsp;" style="rounded=0;whiteSpace=wrap;html=1;labelBackgroundColor=none;fillColor=#09555B;strokeColor=#BAC8D3;fontColor=#EEEEEE;" parent="1" vertex="1">
          <mxGeometry x="670" y="540" width="120" height="60" as="geometry" />
        </mxCell>
        <mxCell id="wUDPbdnFe70WBPyulDKf-32" style="edgeStyle=orthogonalEdgeStyle;rounded=0;orthogonalLoop=1;jettySize=auto;html=1;entryX=1;entryY=0.5;entryDx=0;entryDy=0;labelBackgroundColor=none;strokeColor=#0B4D6A;fontColor=default;" parent="1" source="wUDPbdnFe70WBPyulDKf-26" target="wUDPbdnFe70WBPyulDKf-28" edge="1">
          <mxGeometry relative="1" as="geometry" />
        </mxCell>
        <mxCell id="wUDPbdnFe70WBPyulDKf-26" value="Anypoint&amp;nbsp;" style="rounded=0;whiteSpace=wrap;html=1;labelBackgroundColor=none;fillColor=#09555B;strokeColor=#BAC8D3;fontColor=#EEEEEE;" parent="1" vertex="1">
          <mxGeometry x="680" y="760" width="120" height="60" as="geometry" />
        </mxCell>
        <mxCell id="wUDPbdnFe70WBPyulDKf-27" value="Plan A&amp;nbsp;" style="text;html=1;align=center;verticalAlign=middle;resizable=0;points=[];autosize=1;strokeColor=none;fillColor=none;labelBackgroundColor=none;fontColor=#EEEEEE;" parent="1" vertex="1">
          <mxGeometry x="130" y="510" width="60" height="30" as="geometry" />
        </mxCell>
        <mxCell id="wUDPbdnFe70WBPyulDKf-33" style="edgeStyle=orthogonalEdgeStyle;rounded=0;orthogonalLoop=1;jettySize=auto;html=1;entryX=1;entryY=0.5;entryDx=0;entryDy=0;labelBackgroundColor=none;strokeColor=#0B4D6A;fontColor=default;" parent="1" source="wUDPbdnFe70WBPyulDKf-28" target="wUDPbdnFe70WBPyulDKf-31" edge="1">
          <mxGeometry relative="1" as="geometry" />
        </mxCell>
        <mxCell id="wUDPbdnFe70WBPyulDKf-28" value="SFTP&amp;nbsp;" style="rounded=0;whiteSpace=wrap;html=1;labelBackgroundColor=none;fillColor=#09555B;strokeColor=#BAC8D3;fontColor=#EEEEEE;" parent="1" vertex="1">
          <mxGeometry x="450" y="670" width="120" height="60" as="geometry" />
        </mxCell>
        <mxCell id="wUDPbdnFe70WBPyulDKf-30" style="edgeStyle=orthogonalEdgeStyle;rounded=0;orthogonalLoop=1;jettySize=auto;html=1;entryX=0.008;entryY=0.383;entryDx=0;entryDy=0;entryPerimeter=0;labelBackgroundColor=none;strokeColor=#0B4D6A;fontColor=default;" parent="1" source="wUDPbdnFe70WBPyulDKf-28" target="wUDPbdnFe70WBPyulDKf-24" edge="1">
          <mxGeometry relative="1" as="geometry" />
        </mxCell>
        <mxCell id="wUDPbdnFe70WBPyulDKf-34" style="edgeStyle=orthogonalEdgeStyle;rounded=0;orthogonalLoop=1;jettySize=auto;html=1;entryX=0.5;entryY=1;entryDx=0;entryDy=0;labelBackgroundColor=none;strokeColor=#0B4D6A;fontColor=default;" parent="1" source="wUDPbdnFe70WBPyulDKf-31" target="wUDPbdnFe70WBPyulDKf-17" edge="1">
          <mxGeometry relative="1" as="geometry" />
        </mxCell>
        <mxCell id="wUDPbdnFe70WBPyulDKf-31" value="Integrator" style="rounded=0;whiteSpace=wrap;html=1;labelBackgroundColor=none;fillColor=#09555B;strokeColor=#BAC8D3;fontColor=#EEEEEE;" parent="1" vertex="1">
          <mxGeometry x="250" y="740" width="120" height="60" as="geometry" />
        </mxCell>
        <mxCell id="wUDPbdnFe70WBPyulDKf-35" value="Plan B&amp;nbsp;" style="text;html=1;align=center;verticalAlign=middle;resizable=0;points=[];autosize=1;strokeColor=none;fillColor=none;labelBackgroundColor=none;fontColor=#EEEEEE;" parent="1" vertex="1">
          <mxGeometry x="100" y="930" width="60" height="30" as="geometry" />
        </mxCell>
        <mxCell id="wUDPbdnFe70WBPyulDKf-36" style="edgeStyle=orthogonalEdgeStyle;rounded=0;orthogonalLoop=1;jettySize=auto;html=1;entryX=0;entryY=0.5;entryDx=0;entryDy=0;labelBackgroundColor=none;strokeColor=#0B4D6A;fontColor=default;" parent="1" source="wUDPbdnFe70WBPyulDKf-37" target="wUDPbdnFe70WBPyulDKf-41" edge="1">
          <mxGeometry relative="1" as="geometry" />
        </mxCell>
        <mxCell id="wUDPbdnFe70WBPyulDKf-37" value="Epicore&amp;nbsp;" style="rounded=0;whiteSpace=wrap;html=1;labelBackgroundColor=none;fillColor=#09555B;strokeColor=#BAC8D3;fontColor=#EEEEEE;" parent="1" vertex="1">
          <mxGeometry x="130" y="1032" width="120" height="60" as="geometry" />
        </mxCell>
        <mxCell id="wUDPbdnFe70WBPyulDKf-38" style="edgeStyle=orthogonalEdgeStyle;rounded=0;orthogonalLoop=1;jettySize=auto;html=1;entryX=1;entryY=0.75;entryDx=0;entryDy=0;labelBackgroundColor=none;strokeColor=#0B4D6A;fontColor=default;" parent="1" source="wUDPbdnFe70WBPyulDKf-39" target="wUDPbdnFe70WBPyulDKf-45" edge="1">
          <mxGeometry relative="1" as="geometry">
            <Array as="points">
              <mxPoint x="865" y="1070" />
              <mxPoint x="865" y="1205" />
            </Array>
          </mxGeometry>
        </mxCell>
        <mxCell id="wUDPbdnFe70WBPyulDKf-39" value="Salesforce" style="ellipse;whiteSpace=wrap;html=1;labelBackgroundColor=none;fillColor=#09555B;strokeColor=#BAC8D3;fontColor=#EEEEEE;" parent="1" vertex="1">
          <mxGeometry x="900" y="1020" width="120" height="80" as="geometry" />
        </mxCell>
        <mxCell id="wUDPbdnFe70WBPyulDKf-41" value="Compsass" style="rounded=1;whiteSpace=wrap;html=1;labelBackgroundColor=none;fillColor=#09555B;strokeColor=#BAC8D3;fontColor=#EEEEEE;" parent="1" vertex="1">
          <mxGeometry x="280" y="1032" width="120" height="60" as="geometry" />
        </mxCell>
        <mxCell id="wUDPbdnFe70WBPyulDKf-42" style="edgeStyle=orthogonalEdgeStyle;rounded=0;orthogonalLoop=1;jettySize=auto;html=1;entryX=0;entryY=0.638;entryDx=0;entryDy=0;entryPerimeter=0;labelBackgroundColor=none;strokeColor=#0B4D6A;fontColor=default;" parent="1" source="wUDPbdnFe70WBPyulDKf-43" target="wUDPbdnFe70WBPyulDKf-39" edge="1">
          <mxGeometry relative="1" as="geometry" />
        </mxCell>
        <mxCell id="wUDPbdnFe70WBPyulDKf-43" value="Anypoint&amp;nbsp;" style="rounded=0;whiteSpace=wrap;html=1;labelBackgroundColor=none;fillColor=#09555B;strokeColor=#BAC8D3;fontColor=#EEEEEE;" parent="1" vertex="1">
          <mxGeometry x="700" y="940" width="120" height="60" as="geometry" />
        </mxCell>
        <mxCell id="wUDPbdnFe70WBPyulDKf-51" style="edgeStyle=orthogonalEdgeStyle;rounded=0;orthogonalLoop=1;jettySize=auto;html=1;labelBackgroundColor=none;strokeColor=#0B4D6A;fontColor=default;" parent="1" source="wUDPbdnFe70WBPyulDKf-45" edge="1">
          <mxGeometry relative="1" as="geometry">
            <mxPoint x="180" y="1100" as="targetPoint" />
          </mxGeometry>
        </mxCell>
        <mxCell id="wUDPbdnFe70WBPyulDKf-45" value="RPA BOT" style="rounded=0;whiteSpace=wrap;html=1;labelBackgroundColor=none;fillColor=#09555B;strokeColor=#BAC8D3;fontColor=#EEEEEE;" parent="1" vertex="1">
          <mxGeometry x="425" y="1160" width="120" height="60" as="geometry" />
        </mxCell>
        <mxCell id="wUDPbdnFe70WBPyulDKf-48" style="edgeStyle=orthogonalEdgeStyle;rounded=0;orthogonalLoop=1;jettySize=auto;html=1;entryX=0.008;entryY=0.383;entryDx=0;entryDy=0;entryPerimeter=0;labelBackgroundColor=none;strokeColor=#0B4D6A;fontColor=default;" parent="1" target="wUDPbdnFe70WBPyulDKf-43" edge="1">
          <mxGeometry relative="1" as="geometry">
            <mxPoint x="410" y="1050" as="sourcePoint" />
            <Array as="points">
              <mxPoint x="410" y="1051" />
              <mxPoint x="556" y="1051" />
              <mxPoint x="556" y="963" />
            </Array>
          </mxGeometry>
        </mxCell>
        <mxCell id="wUDPbdnFe70WBPyulDKf-52" value="Plan A&amp;nbsp;" style="rounded=0;whiteSpace=wrap;html=1;labelBackgroundColor=none;fillColor=#008a00;strokeColor=#005700;fontColor=#ffffff;" parent="1" vertex="1">
          <mxGeometry x="110" y="520" width="120" height="60" as="geometry" />
        </mxCell>
        <mxCell id="wUDPbdnFe70WBPyulDKf-53" value="Plan&amp;nbsp; B&amp;nbsp;" style="rounded=0;whiteSpace=wrap;html=1;labelBackgroundColor=none;fillColor=#1ba1e2;strokeColor=#006EAF;fontColor=#ffffff;" parent="1" vertex="1">
          <mxGeometry x="100" y="915" width="120" height="60" as="geometry" />
        </mxCell>
        <mxCell id="0J_4nR7kKO_h-hr02DZh-1" value="Customer Maintainance" style="text;html=1;align=center;verticalAlign=middle;resizable=0;points=[];autosize=1;strokeColor=none;fillColor=none;" parent="1" vertex="1">
          <mxGeometry x="425" y="620" width="150" height="30" as="geometry" />
        </mxCell>
        <mxCell id="0J_4nR7kKO_h-hr02DZh-2" value="201" style="text;html=1;align=center;verticalAlign=middle;resizable=0;points=[];autosize=1;strokeColor=none;fillColor=none;" parent="1" vertex="1">
          <mxGeometry x="820" y="710" width="40" height="30" as="geometry" />
        </mxCell>
        <mxCell id="0J_4nR7kKO_h-hr02DZh-4" value="Accounts Creation&amp;nbsp;" style="text;html=1;align=center;verticalAlign=middle;resizable=0;points=[];autosize=1;strokeColor=none;fillColor=none;" parent="1" vertex="1">
          <mxGeometry x="980" y="720" width="120" height="30" as="geometry" />
        </mxCell>
        <mxCell id="0J_4nR7kKO_h-hr02DZh-5" value="Accounts Updation" style="text;html=1;align=center;verticalAlign=middle;resizable=0;points=[];autosize=1;strokeColor=none;fillColor=none;" parent="1" vertex="1">
          <mxGeometry x="980" y="760" width="120" height="30" as="geometry" />
        </mxCell>
        <mxCell id="0J_4nR7kKO_h-hr02DZh-6" value="1" style="text;html=1;align=center;verticalAlign=middle;resizable=0;points=[];autosize=1;strokeColor=none;fillColor=none;" parent="1" vertex="1">
          <mxGeometry x="580" y="602" width="30" height="30" as="geometry" />
        </mxCell>
        <mxCell id="0J_4nR7kKO_h-hr02DZh-7" value="2" style="text;html=1;align=center;verticalAlign=middle;resizable=0;points=[];autosize=1;strokeColor=none;fillColor=none;" parent="1" vertex="1">
          <mxGeometry x="840" y="690" width="30" height="30" as="geometry" />
        </mxCell>
        <mxCell id="0J_4nR7kKO_h-hr02DZh-8" value="3" style="text;html=1;align=center;verticalAlign=middle;resizable=0;points=[];autosize=1;strokeColor=none;fillColor=none;" parent="1" vertex="1">
          <mxGeometry x="860" y="740" width="30" height="30" as="geometry" />
        </mxCell>
      </root>
    </mxGraphModel>
  </diagram>
  <diagram id="3cSJjNYGmxpZg2zmQv0p" name="Page-2">
    <mxGraphModel dx="1426" dy="747" grid="1" gridSize="10" guides="1" tooltips="1" connect="1" arrows="1" fold="1" page="1" pageScale="1" pageWidth="850" pageHeight="1100" math="0" shadow="0">
      <root>
        <mxCell id="0" />
        <mxCell id="1" parent="0" />
        <mxCell id="VwpGQ6u4srVAES7ghstJ-9" style="edgeStyle=orthogonalEdgeStyle;rounded=0;orthogonalLoop=1;jettySize=auto;html=1;entryX=0.5;entryY=1;entryDx=0;entryDy=0;" edge="1" parent="1" source="3_RDvNyo-6aReWQ6BsRK-1" target="3_RDvNyo-6aReWQ6BsRK-3">
          <mxGeometry relative="1" as="geometry" />
        </mxCell>
        <mxCell id="3_RDvNyo-6aReWQ6BsRK-1" value="SFTP&amp;nbsp;" style="rounded=0;whiteSpace=wrap;html=1;" vertex="1" parent="1">
          <mxGeometry x="300" y="500" width="120" height="60" as="geometry" />
        </mxCell>
        <mxCell id="3_RDvNyo-6aReWQ6BsRK-2" value="Epicore sAPI" style="rounded=0;whiteSpace=wrap;html=1;" vertex="1" parent="1">
          <mxGeometry x="306" y="650" width="120" height="60" as="geometry" />
        </mxCell>
        <mxCell id="VwpGQ6u4srVAES7ghstJ-10" style="rounded=0;orthogonalLoop=1;jettySize=auto;html=1;entryX=0.25;entryY=0;entryDx=0;entryDy=0;" edge="1" parent="1" source="3_RDvNyo-6aReWQ6BsRK-3" target="VwpGQ6u4srVAES7ghstJ-2">
          <mxGeometry relative="1" as="geometry" />
        </mxCell>
        <mxCell id="3_RDvNyo-6aReWQ6BsRK-3" value="Customer Maintenance" style="rounded=0;whiteSpace=wrap;html=1;" vertex="1" parent="1">
          <mxGeometry x="300" y="270" width="120" height="60" as="geometry" />
        </mxCell>
        <mxCell id="VwpGQ6u4srVAES7ghstJ-4" style="rounded=0;orthogonalLoop=1;jettySize=auto;html=1;" edge="1" parent="1" source="VwpGQ6u4srVAES7ghstJ-1" target="3_RDvNyo-6aReWQ6BsRK-1">
          <mxGeometry relative="1" as="geometry" />
        </mxCell>
        <mxCell id="VwpGQ6u4srVAES7ghstJ-1" value="Account&amp;nbsp; Management 201" style="rounded=0;whiteSpace=wrap;html=1;" vertex="1" parent="1">
          <mxGeometry x="530" y="270" width="120" height="60" as="geometry" />
        </mxCell>
        <mxCell id="VwpGQ6u4srVAES7ghstJ-3" style="edgeStyle=orthogonalEdgeStyle;rounded=0;orthogonalLoop=1;jettySize=auto;html=1;entryX=0.5;entryY=1;entryDx=0;entryDy=0;" edge="1" parent="1" source="VwpGQ6u4srVAES7ghstJ-2" target="VwpGQ6u4srVAES7ghstJ-1">
          <mxGeometry relative="1" as="geometry">
            <Array as="points">
              <mxPoint x="590" y="570" />
              <mxPoint x="590" y="570" />
            </Array>
          </mxGeometry>
        </mxCell>
        <mxCell id="VwpGQ6u4srVAES7ghstJ-12" style="edgeStyle=orthogonalEdgeStyle;rounded=0;orthogonalLoop=1;jettySize=auto;html=1;entryX=0.5;entryY=0;entryDx=0;entryDy=0;" edge="1" parent="1" source="VwpGQ6u4srVAES7ghstJ-2" target="VwpGQ6u4srVAES7ghstJ-11">
          <mxGeometry relative="1" as="geometry" />
        </mxCell>
        <mxCell id="VwpGQ6u4srVAES7ghstJ-2" value="SF sAPI" style="rounded=0;whiteSpace=wrap;html=1;" vertex="1" parent="1">
          <mxGeometry x="550" y="650" width="120" height="60" as="geometry" />
        </mxCell>
        <mxCell id="VwpGQ6u4srVAES7ghstJ-5" value="Create and Update" style="text;html=1;align=center;verticalAlign=middle;whiteSpace=wrap;rounded=0;" vertex="1" parent="1">
          <mxGeometry x="680" y="270" width="80" height="50" as="geometry" />
        </mxCell>
        <mxCell id="VwpGQ6u4srVAES7ghstJ-8" value="" style="endArrow=classic;startArrow=classic;html=1;rounded=0;entryX=0.5;entryY=1;entryDx=0;entryDy=0;" edge="1" parent="1" target="3_RDvNyo-6aReWQ6BsRK-1">
          <mxGeometry width="50" height="50" relative="1" as="geometry">
            <mxPoint x="360" y="650" as="sourcePoint" />
            <mxPoint x="410" y="600" as="targetPoint" />
          </mxGeometry>
        </mxCell>
        <mxCell id="VwpGQ6u4srVAES7ghstJ-11" value="Salesforce&amp;nbsp;" style="rounded=0;whiteSpace=wrap;html=1;" vertex="1" parent="1">
          <mxGeometry x="550" y="800" width="120" height="60" as="geometry" />
        </mxCell>
        <mxCell id="VwpGQ6u4srVAES7ghstJ-14" style="edgeStyle=orthogonalEdgeStyle;rounded=0;orthogonalLoop=1;jettySize=auto;html=1;" edge="1" parent="1" source="VwpGQ6u4srVAES7ghstJ-13">
          <mxGeometry relative="1" as="geometry">
            <mxPoint x="366" y="720" as="targetPoint" />
          </mxGeometry>
        </mxCell>
        <mxCell id="VwpGQ6u4srVAES7ghstJ-13" value="Epicore" style="rounded=0;whiteSpace=wrap;html=1;" vertex="1" parent="1">
          <mxGeometry x="306" y="790" width="120" height="60" as="geometry" />
        </mxCell>
      </root>
    </mxGraphModel>
  </diagram>
</mxfile>
